<svg version="1.1" id="Layer_1" xmlns="http://www.w3.org/2000/svg" xmlns:xlink="http://www.w3.org/1999/xlink" x="0px" y="0px"
	 width="100%" viewBox="0 0 176 176" enable-background="new 0 0 176 176" xml:space="preserve">
<path fill="#000000" opacity="1.000000" stroke="none" 
	d="
M78.531342,1.000000 
	C76.210350,3.077554 72.742455,2.776551 69.604500,3.562266 
	C53.281513,7.649387 38.976265,15.585912 27.254017,27.412359 
	C13.659055,41.128170 4.957226,57.714333 2.192063,77.098183 
	C2.126114,77.560486 1.774616,77.982048 1.278152,78.711304 
	C1.000000,53.073109 1.000000,27.146219 1.000000,1.000000 
	C26.687145,1.000000 52.374912,1.000000 78.531342,1.000000 
z"/>
<path fill="#000000" opacity="1.000000" stroke="none" 
	d="
M1.000000,103.468658 
	C3.003328,104.434219 2.082657,106.664948 2.496296,108.528992 
	C6.437024,126.287697 14.739163,141.770767 27.487904,154.664948 
	C36.417210,163.696121 46.981228,170.503067 58.968601,174.958664 
	C59.878502,175.296875 60.665737,175.965103 61.754997,176.739960 
	C41.732773,177.000000 21.465549,177.000000 1.000000,177.000000 
	C1.000000,152.646133 1.000000,128.291718 1.000000,103.468658 
z"/>
<path fill="#000000" opacity="1.000000" stroke="none" 
	d="
M177.000000,61.531342 
	C172.796494,54.887222 170.006546,47.040054 165.178696,40.224266 
	C150.363571,19.308830 130.393463,6.668477 105.211845,2.154891 
	C104.899231,2.098859 104.615860,1.879701 104.159424,1.368342 
	C128.253616,1.000000 152.507248,1.000000 177.000000,1.000000 
	C177.000000,21.020260 177.000000,41.041470 177.000000,61.531342 
z"/>
<path fill="#000000" opacity="1.000000" stroke="none" 
	d="
M120.468658,177.000000 
	C125.988319,173.872742 132.168686,171.061340 137.928925,167.558960 
	C155.166702,157.077942 167.394745,142.282547 174.826019,123.517838 
	C175.245697,122.458122 175.939636,121.507011 176.752960,120.252678 
	C177.000000,138.926788 177.000000,157.853592 177.000000,177.000000 
	C158.313019,177.000000 139.625168,177.000000 120.468658,177.000000 
z"/>
<path fill="#000000" opacity="1.000000" stroke="none" 
	d="
M116.670212,71.676941 
	C115.184334,86.028519 104.770035,95.996216 91.353584,96.241707 
	C78.984039,96.468040 67.317673,86.720192 65.677940,74.788368 
	C63.699654,60.393024 71.141861,48.600739 84.812698,45.311626 
	C101.752525,41.236015 117.198029,53.460140 116.670212,71.676941 
M106.714149,64.988220 
	C103.398720,57.409336 96.471237,52.691669 89.818573,53.482193 
	C80.081528,54.639229 73.004593,63.497215 74.449005,72.719826 
	C75.893898,81.945518 84.914444,88.260132 94.269737,86.594849 
	C103.468033,84.957512 109.178970,75.562454 106.714149,64.988220 
z"/>
<path fill="#000000" opacity="1.000000" stroke="none" 
	d="
M79.298294,100.874481 
	C92.219337,98.377586 104.257271,99.630783 115.607361,105.603081 
	C121.684135,108.800621 126.416161,113.312027 128.656708,120.069611 
	C129.308044,122.034058 129.428757,123.986816 129.251221,125.980690 
	C129.045181,128.294876 127.562973,129.707962 125.398453,129.915405 
	C123.215569,130.124619 121.286758,128.954300 120.914558,126.742073 
	C119.054260,115.684937 110.587685,112.107292 101.403206,110.131119 
	C90.253326,107.732056 79.223045,108.397339 69.093819,114.620468 
	C65.029198,117.117668 62.333134,120.581024 61.466965,125.237206 
	C60.937946,128.080978 59.700302,130.192764 56.722187,129.908508 
	C53.476963,129.598770 52.538685,127.059723 52.683094,124.046150 
	C53.067005,116.034302 58.026783,111.030128 64.114235,106.866104 
	C68.571281,103.817337 73.679298,102.233612 79.298294,100.874481 
z"/>
</svg>